<mxfile host="65bd71144e">
    <diagram id="QoUaugS-agS9BkGi2WX4" name="PÃ¡gina-1">
        <mxGraphModel dx="1633" dy="470" grid="1" gridSize="10" guides="1" tooltips="1" connect="1" arrows="1" fold="1" page="1" pageScale="1" pageWidth="827" pageHeight="1169" math="0" shadow="0">
            <root>
                <mxCell id="0"/>
                <mxCell id="1" parent="0"/>
                <mxCell id="4" style="edgeStyle=none;html=1;exitX=0.5;exitY=0.5;exitDx=0;exitDy=15;exitPerimeter=0;entryX=0.5;entryY=0;entryDx=0;entryDy=0;" edge="1" parent="1" source="2">
                    <mxGeometry relative="1" as="geometry">
                        <mxPoint x="411.6199999999999" y="90" as="targetPoint"/>
                    </mxGeometry>
                </mxCell>
                <mxCell id="2" value="INICIO" style="html=1;dashed=0;whitespace=wrap;shape=mxgraph.dfd.start;fillColor=#003333;" vertex="1" parent="1">
                    <mxGeometry x="371.62" y="20" width="80" height="40" as="geometry"/>
                </mxCell>
                <mxCell id="15" style="edgeStyle=none;html=1;exitX=0.5;exitY=1;exitDx=0;exitDy=0;entryX=0;entryY=0.5;entryDx=0;entryDy=0;entryPerimeter=0;" edge="1" parent="1" target="12">
                    <mxGeometry relative="1" as="geometry">
                        <mxPoint x="411.6199999999999" y="140" as="sourcePoint"/>
                    </mxGeometry>
                </mxCell>
                <mxCell id="47" style="edgeStyle=none;html=1;exitX=0.5;exitY=1;exitDx=0;exitDy=0;entryX=0.5;entryY=0;entryDx=0;entryDy=0;" edge="1" parent="1" source="5" target="32">
                    <mxGeometry relative="1" as="geometry"/>
                </mxCell>
                <mxCell id="48" style="edgeStyle=none;html=1;exitX=0.5;exitY=1;exitDx=0;exitDy=0;entryX=0.5;entryY=0;entryDx=0;entryDy=0;" edge="1" parent="1" source="6" target="33">
                    <mxGeometry relative="1" as="geometry"/>
                </mxCell>
                <mxCell id="6" value="x &amp;lt;=: -1 &lt;br&gt;negativa&lt;br&gt;y &amp;gt;=: 1 &lt;br&gt;positiva" style="shape=rhombus;html=1;dashed=0;whitespace=wrap;perimeter=rhombusPerimeter;fillColor=#009999;" vertex="1" parent="1">
                    <mxGeometry x="70" y="200" width="110" height="90" as="geometry"/>
                </mxCell>
                <mxCell id="49" style="edgeStyle=none;html=1;exitX=0.5;exitY=1;exitDx=0;exitDy=0;entryX=0.5;entryY=0;entryDx=0;entryDy=0;" edge="1" parent="1" source="7" target="34">
                    <mxGeometry relative="1" as="geometry"/>
                </mxCell>
                <mxCell id="7" value="x , y &amp;lt;=: -1&lt;br&gt;negativas" style="shape=rhombus;html=1;dashed=0;whitespace=wrap;perimeter=rhombusPerimeter;fillColor=#009999;" vertex="1" parent="1">
                    <mxGeometry x="230" y="197.5" width="90" height="90" as="geometry"/>
                </mxCell>
                <mxCell id="50" style="edgeStyle=none;html=1;exitX=0.5;exitY=1;exitDx=0;exitDy=0;entryX=0.5;entryY=0;entryDx=0;entryDy=0;" edge="1" parent="1" source="8" target="35">
                    <mxGeometry relative="1" as="geometry"/>
                </mxCell>
                <mxCell id="8" value="x &amp;gt;=: 1 &lt;br&gt;positiva&lt;br&gt;y &amp;lt;=: 1 &lt;br&gt;negativa" style="shape=rhombus;html=1;dashed=0;whitespace=wrap;perimeter=rhombusPerimeter;fillColor=#009999;" vertex="1" parent="1">
                    <mxGeometry x="358.5" y="195" width="110" height="90" as="geometry"/>
                </mxCell>
                <mxCell id="51" style="edgeStyle=none;html=1;exitX=0.5;exitY=1;exitDx=0;exitDy=0;entryX=0.5;entryY=0;entryDx=0;entryDy=0;" edge="1" parent="1" source="9" target="37">
                    <mxGeometry relative="1" as="geometry"/>
                </mxCell>
                <mxCell id="9" value="x &amp;lt;=: 0 &amp;gt;=: 1&lt;br&gt;y ==0" style="shape=rhombus;html=1;dashed=0;whitespace=wrap;perimeter=rhombusPerimeter;fillColor=#009999;" vertex="1" parent="1">
                    <mxGeometry x="510" y="195" width="100" height="90" as="geometry"/>
                </mxCell>
                <mxCell id="52" style="edgeStyle=none;html=1;exitX=0.5;exitY=1;exitDx=0;exitDy=0;entryX=0.5;entryY=0;entryDx=0;entryDy=0;" edge="1" parent="1" source="10" target="38">
                    <mxGeometry relative="1" as="geometry"/>
                </mxCell>
                <mxCell id="10" value="x ==0&lt;br&gt;y &amp;lt;=: 0 &amp;gt;=: 1" style="shape=rhombus;html=1;dashed=0;whitespace=wrap;perimeter=rhombusPerimeter;fillColor=#009999;" vertex="1" parent="1">
                    <mxGeometry x="650" y="190" width="100" height="100" as="geometry"/>
                </mxCell>
                <mxCell id="12" value="" style="strokeWidth=2;html=1;shape=mxgraph.flowchart.annotation_1;align=left;pointerEvents=1;rotation=90;" vertex="1" parent="1">
                    <mxGeometry x="401.29" y="-239.66" width="20" height="849.33" as="geometry"/>
                </mxCell>
                <mxCell id="53" style="edgeStyle=none;html=1;exitX=0.5;exitY=1;exitDx=0;exitDy=0;entryX=0.5;entryY=0;entryDx=0;entryDy=0;" edge="1" parent="1" source="20" target="39">
                    <mxGeometry relative="1" as="geometry"/>
                </mxCell>
                <mxCell id="20" value="x == 0&lt;br&gt;y == 0" style="shape=rhombus;html=1;dashed=0;whitespace=wrap;perimeter=rhombusPerimeter;fillColor=#009999;" vertex="1" parent="1">
                    <mxGeometry x="790" y="192.5" width="90" height="95" as="geometry"/>
                </mxCell>
                <mxCell id="24" value="" style="endArrow=classic;html=1;exitX=0;exitY=0.837;exitDx=0;exitDy=0;exitPerimeter=0;" edge="1" parent="1" source="12">
                    <mxGeometry width="50" height="50" relative="1" as="geometry">
                        <mxPoint x="128" y="170" as="sourcePoint"/>
                        <mxPoint x="125" y="200" as="targetPoint"/>
                    </mxGeometry>
                </mxCell>
                <mxCell id="25" value="" style="endArrow=classic;html=1;exitX=0;exitY=0.658;exitDx=0;exitDy=0;exitPerimeter=0;" edge="1" parent="1" source="12">
                    <mxGeometry width="50" height="50" relative="1" as="geometry">
                        <mxPoint x="135.06578999999988" y="185.005" as="sourcePoint"/>
                        <mxPoint x="277" y="200" as="targetPoint"/>
                    </mxGeometry>
                </mxCell>
                <mxCell id="26" value="" style="endArrow=classic;html=1;exitX=0;exitY=0.5;exitDx=0;exitDy=0;exitPerimeter=0;entryX=0.5;entryY=0;entryDx=0;entryDy=0;" edge="1" parent="1" source="12" target="8">
                    <mxGeometry width="50" height="50" relative="1" as="geometry">
                        <mxPoint x="145.06578999999988" y="195.005" as="sourcePoint"/>
                        <mxPoint x="145" y="220" as="targetPoint"/>
                    </mxGeometry>
                </mxCell>
                <mxCell id="27" value="" style="endArrow=classic;html=1;exitX=0.05;exitY=0.327;exitDx=0;exitDy=0;exitPerimeter=0;entryX=0.5;entryY=0;entryDx=0;entryDy=0;" edge="1" parent="1" source="12" target="9">
                    <mxGeometry width="50" height="50" relative="1" as="geometry">
                        <mxPoint x="155.06578999999988" y="205.005" as="sourcePoint"/>
                        <mxPoint x="155" y="230" as="targetPoint"/>
                    </mxGeometry>
                </mxCell>
                <mxCell id="29" value="" style="endArrow=classic;html=1;exitX=0;exitY=0.159;exitDx=0;exitDy=0;exitPerimeter=0;entryX=0.95;entryY=0.16;entryDx=0;entryDy=0;entryPerimeter=0;" edge="1" parent="1" source="12" target="12">
                    <mxGeometry width="50" height="50" relative="1" as="geometry">
                        <mxPoint x="578.2240899999997" y="196.005" as="sourcePoint"/>
                        <mxPoint x="580" y="215" as="targetPoint"/>
                    </mxGeometry>
                </mxCell>
                <mxCell id="31" value="x y" style="shape=parallelogram;html=1;strokeWidth=2;perimeter=parallelogramPerimeter;whiteSpace=wrap;rounded=1;arcSize=12;size=0.23;fillColor=#003366;" vertex="1" parent="1">
                    <mxGeometry x="361.28999999999996" y="90" width="100" height="60" as="geometry"/>
                </mxCell>
                <mxCell id="56" style="edgeStyle=none;html=1;exitX=0.5;exitY=1;exitDx=0;exitDy=0;" edge="1" parent="1" source="33">
                    <mxGeometry relative="1" as="geometry">
                        <mxPoint x="125" y="410" as="targetPoint"/>
                    </mxGeometry>
                </mxCell>
                <mxCell id="33" value="z = II" style="html=1;dashed=0;whitespace=wrap;fillColor=#007FFF;" vertex="1" parent="1">
                    <mxGeometry x="75" y="320" width="100" height="50" as="geometry"/>
                </mxCell>
                <mxCell id="34" value="z = III" style="html=1;dashed=0;whitespace=wrap;fillColor=#007FFF;" vertex="1" parent="1">
                    <mxGeometry x="225" y="320" width="100" height="50" as="geometry"/>
                </mxCell>
                <mxCell id="46" style="edgeStyle=none;html=1;exitX=0.5;exitY=1;exitDx=0;exitDy=0;entryX=0.5;entryY=0;entryDx=0;entryDy=0;" edge="1" parent="1" source="35" target="40">
                    <mxGeometry relative="1" as="geometry"/>
                </mxCell>
                <mxCell id="35" value="z = IV" style="html=1;dashed=0;whitespace=wrap;fillColor=#007FFF;" vertex="1" parent="1">
                    <mxGeometry x="361.62" y="320" width="100" height="50" as="geometry"/>
                </mxCell>
                <mxCell id="37" value="z = SOBRE EL&lt;span style=&quot;color: rgba(0 , 0 , 0 , 0) ; font-family: monospace ; font-size: 0px&quot;&gt;%3CmxGraphModel%3E%3Croot%3E%3CmxCell%20id%3D%220%22%2F%3E%3CmxCell%20id%3D%221%22%20parent%3D%220%22%2F%3E%3CmxCell%20id%3D%222%22%20value%3D%22z%20%3D%20IV%22%20style%3D%22html%3D1%3Bdashed%3D0%3Bwhitespace%3Dwrap%3B%22%20vertex%3D%221%22%20parent%3D%221%22%3E%3CmxGeometry%20x%3D%22364%22%20y%3D%22320%22%20width%3D%22100%22%20height%3D%2250%22%20as%3D%22geometry%22%2F%3E%3C%2FmxCell%3E%3C%2Froot%3E%3C%2FmxGraphModel%3E&lt;/span&gt;&lt;br&gt;EJE X" style="html=1;dashed=0;whitespace=wrap;fillColor=#007FFF;" vertex="1" parent="1">
                    <mxGeometry x="510" y="320" width="100" height="50" as="geometry"/>
                </mxCell>
                <mxCell id="38" value="z = SOBRE EL&lt;span style=&quot;color: rgba(0 , 0 , 0 , 0) ; font-family: monospace ; font-size: 0px&quot;&gt;%3CmxGraphModel%3E%3Croot%3E%3CmxCell%20id%3D%220%22%2F%3E%3CmxCell%20id%3D%221%22%20parent%3D%220%22%2F%3E%3CmxCell%20id%3D%222%22%20value%3D%22z%20%3D%20IV%22%20style%3D%22html%3D1%3Bdashed%3D0%3Bwhitespace%3Dwrap%3B%22%20vertex%3D%221%22%20parent%3D%221%22%3E%3CmxGeometry%20x%3D%22364%22%20y%3D%22320%22%20width%3D%22100%22%20height%3D%2250%22%20as%3D%22geometry%22%2F%3E%3C%2FmxCell%3E%3C%2Froot%3E%3C%2FmxGraphModel%3E&lt;/span&gt;&lt;br&gt;EJE Y" style="html=1;dashed=0;whitespace=wrap;fillColor=#007FFF;" vertex="1" parent="1">
                    <mxGeometry x="650" y="320" width="100" height="50" as="geometry"/>
                </mxCell>
                <mxCell id="40" value="z" style="shape=document;whiteSpace=wrap;html=1;boundedLbl=1;dashed=0;flipH=1;fillColor=#3399FF;" vertex="1" parent="1">
                    <mxGeometry x="361.29" y="420" width="100" height="70" as="geometry"/>
                </mxCell>
                <mxCell id="41" value="FIN" style="html=1;dashed=0;whitespace=wrap;shape=mxgraph.dfd.start;fillColor=#003333;" vertex="1" parent="1">
                    <mxGeometry x="374" y="520" width="80" height="40" as="geometry"/>
                </mxCell>
                <mxCell id="42" style="edgeStyle=none;html=1;exitX=0.5;exitY=1;exitDx=0;exitDy=0;" edge="1" parent="1" target="41">
                    <mxGeometry relative="1" as="geometry">
                        <mxPoint x="413.32999999999987" y="480" as="sourcePoint"/>
                        <mxPoint x="412.99999999999994" y="515.005" as="targetPoint"/>
                    </mxGeometry>
                </mxCell>
                <mxCell id="44" value="" style="strokeWidth=2;html=1;shape=mxgraph.flowchart.annotation_1;align=left;pointerEvents=1;rotation=-90;" vertex="1" parent="1">
                    <mxGeometry x="386.29" y="-40" width="50" height="845" as="geometry"/>
                </mxCell>
                <mxCell id="32" value="z = I" style="html=1;dashed=0;whitespace=wrap;" vertex="1" parent="1">
                    <mxGeometry x="-60" y="320" width="100" height="50" as="geometry"/>
                </mxCell>
                <mxCell id="57" style="edgeStyle=none;html=1;exitX=0.5;exitY=1;exitDx=0;exitDy=0;" edge="1" parent="1">
                    <mxGeometry relative="1" as="geometry">
                        <mxPoint x="274.5" y="410" as="targetPoint"/>
                        <mxPoint x="274.5" y="370" as="sourcePoint"/>
                    </mxGeometry>
                </mxCell>
                <mxCell id="58" style="edgeStyle=none;html=1;exitX=0.5;exitY=1;exitDx=0;exitDy=0;" edge="1" parent="1">
                    <mxGeometry relative="1" as="geometry">
                        <mxPoint x="559.5" y="410" as="targetPoint"/>
                        <mxPoint x="559.5" y="370" as="sourcePoint"/>
                    </mxGeometry>
                </mxCell>
                <mxCell id="59" style="edgeStyle=none;html=1;exitX=0.5;exitY=1;exitDx=0;exitDy=0;" edge="1" parent="1">
                    <mxGeometry relative="1" as="geometry">
                        <mxPoint x="699.5" y="410" as="targetPoint"/>
                        <mxPoint x="699.5" y="370" as="sourcePoint"/>
                    </mxGeometry>
                </mxCell>
                <mxCell id="5" value="x , y &amp;gt;=: 1&lt;br&gt;positivas" style="shape=rhombus;html=1;dashed=0;whitespace=wrap;perimeter=rhombusPerimeter;fillColor=#009999;" vertex="1" parent="1">
                    <mxGeometry x="-60" y="195" width="100" height="90" as="geometry"/>
                </mxCell>
                <mxCell id="61" value="" style="strokeWidth=2;html=1;shape=mxgraph.flowchart.annotation_1;align=left;pointerEvents=1;rotation=-90;" vertex="1" parent="1">
                    <mxGeometry x="386.29" y="-40" width="50" height="845" as="geometry"/>
                </mxCell>
                <mxCell id="60" value="z = I" style="html=1;dashed=0;whitespace=wrap;fillColor=#007FFF;" vertex="1" parent="1">
                    <mxGeometry x="-60" y="320" width="100" height="50" as="geometry"/>
                </mxCell>
                <mxCell id="39" value="z = ORIGEN&lt;span style=&quot;color: rgba(0 , 0 , 0 , 0) ; font-family: monospace ; font-size: 0px&quot;&gt;%3CmxGraphModel%3E%3Croot%3E%3CmxCell%20id%3D%220%22%2F%3E%3CmxCell%20id%3D%221%22%20parent%3D%220%22%2F%3E%3CmxCell%20id%3D%222%22%20value%3D%22z%20%3D%20IV%22%20style%3D%22html%3D1%3Bdashed%3D0%3Bwhitespace%3Dwrap%3B%22%20vertex%3D%221%22%20parent%3D%221%22%3E%3CmxGeometry%20x%3D%22364%22%20y%3D%22320%22%20width%3D%22100%22%20height%3D%2250%22%20as%3D%22geometry%22%2F%3E%3C%2FmxCell%3E%3C%2Froot%3E%3C%2FmxGraphModel&lt;/span&gt;" style="html=1;dashed=0;whitespace=wrap;fillColor=#007FFF;" vertex="1" parent="1">
                    <mxGeometry x="785" y="320" width="100" height="50" as="geometry"/>
                </mxCell>
            </root>
        </mxGraphModel>
    </diagram>
</mxfile>